<mxfile host="app.diagrams.net" modified="2023-03-26T08:47:26.543Z" agent="Mozilla/5.0 (Windows NT 10.0; Win64; x64) AppleWebKit/537.36 (KHTML, like Gecko) Chrome/110.0.0.0 Safari/537.36 OPR/96.0.0.0" version="21.1.1" etag="k5mo6VEBdaj672SnvOYx" type="github">
  <diagram name="PÃ¡gina-1" id="zdsikTlmvqd8L8lIcx2i">
    <mxGraphModel>
      <root>
        <mxCell id="0" />
        <mxCell id="1" parent="0" />
      </root>
    </mxGraphModel>
  </diagram>
</mxfile>
